<svg xmlns="http://www.w3.org/2000/svg" viewBox="0 0 64 64">
  <defs>
    <linearGradient id="bg" x1="0%" y1="0%" x2="100%" y2="100%">
      <stop offset="0%" stop-color="#0f172a" />
      <stop offset="100%" stop-color="#1e293b" />
    </linearGradient>
    <linearGradient id="accent" x1="0%" y1="0%" x2="100%" y2="100%">
      <stop offset="0%" stop-color="#10b981" />
      <stop offset="100%" stop-color="#22d3ee" />
    </linearGradient>
  </defs>

  <rect x="4" y="4" width="56" height="56" rx="16" fill="url(#bg)" />

  <path
    d="M18 42V22h15.5c6 0 9.5 3.1 9.5 8.1 0 3.5-1.8 5.9-4.9 7l5.8 5.9h-8.1l-5-5.2h-5.2V42zM26 30.9h6.2c2.1 0 3.1-1.1 3.1-2.8 0-1.8-1-2.9-3.1-2.9H26z"
    fill="#f8fafc"
  />

  <path
    d="M13 16l6.2-6.2L25 16l6.1-6.2L37 16l6.2-6.2L49 16"
    fill="none"
    stroke="url(#accent)"
    stroke-linecap="round"
    stroke-linejoin="round"
    stroke-width="3.5"
  />
</svg>
