<svg xmlns="http://www.w3.org/2000/svg" viewBox="0 0 64 64">
  <defs>
    <linearGradient id="g" x1="0%" y1="0%" x2="100%" y2="100%">
      <stop offset="0%" stop-color="#f59e0b"/>
      <stop offset="100%" stop-color="#7dd3fc"/>
    </linearGradient>
  </defs>
  <rect x="6" y="6" width="52" height="52" rx="14" fill="#0d1117"/>
  <!-- B -->
  <path d="M15 16h8.5c2.5 0 4.5.8 5.8 2.1 1 1 1.6 2.4 1.6 4 0 2.2-1 3.7-2.8 4.6 2.3.9 3.6 2.7 3.6 5.2 0 1.8-.7 3.3-1.9 4.4-1.4 1.3-3.5 2.1-6.3 2.1H15V16zm8 9.2c2 0 3.2-.9 3.2-2.5s-1.2-2.5-3.2-2.5h-3.3v5h3.3zm.8 10c2.2 0 3.5-1 3.5-2.8 0-1.7-1.3-2.8-3.5-2.8h-4.1v5.6h4.1z" fill="url(#g)"/>
  <!-- R -->
  <path d="M35 16h8.5c2.6 0 4.6.7 5.9 2 1 1 1.6 2.5 1.6 4.2 0 2.8-1.5 4.7-3.9 5.6L51 38.4h-5.3l-3.5-9.6H39.7v9.6H35V16zm8.2 9.5c2.1 0 3.3-1 3.3-2.7 0-1.7-1.2-2.7-3.3-2.7h-3.5v5.4h3.5z" fill="url(#g)"/>
</svg>
