<svg xmlns="http://www.w3.org/2000/svg" viewBox="0 0 64 64">
  <defs>
    <linearGradient id="brand" x1="0%" y1="0%" x2="100%" y2="100%">
      <stop offset="0%" stop-color="#0f8f5f" />
      <stop offset="100%" stop-color="#22d3ee" />
    </linearGradient>
  </defs>

  <rect x="6" y="6" width="52" height="52" rx="14" fill="#0f172a" />

  <path
    d="M24 18v28M24 18h11c4.4 0 7 2.5 7 6.2 0 2.8-1.5 4.7-3.9 5.7 3 0.9 4.9 3.2 4.9 6.6 0 4.2-2.9 7.5-8.4 7.5H24M31 25h4.6c1.8 0 2.9 1 2.9 2.5s-1.1 2.5-2.9 2.5H31M31 35h5.3c2 0 3.2 1.1 3.2 2.8s-1.2 2.8-3.2 2.8H31"
    fill="none"
    stroke="url(#brand)"
    stroke-width="4"
    stroke-linecap="round"
    stroke-linejoin="round"
  />
</svg>
